<svg viewBox="0 0 64 64" id="Layer_1" version="1.1" xml:space="preserve"
    xmlns="http://www.w3.org/2000/svg" xmlns:xlink="http://www.w3.org/1999/xlink" fill="#000000"
    stroke="#000000"><g id="SVGRepo_bgCarrier" stroke-width="0"></g><g id="SVGRepo_tracerCarrier" stroke-linecap="round" stroke-linejoin="round"></g><g id="SVGRepo_iconCarrier"> <style type="text/css"> .st0{fill:#000000;} .st1{fill:;} .st2{fill:;} .st3{fill:;} .st4{fill:;} .st5{fill:#000000;} .st6{fill:#000000;} .st7{fill:#000000;} .st8{fill:;} .st9{fill:#000000;} .st10{fill:;} .st11{fill:;} .st12{fill:;} .st13{fill:;} .st14{fill:;} </style> <g> <ellipse class="st5" cx="32" cy="33.32" rx="24" ry="6.22"></ellipse> <path class="st6" d="M40.73,11.14c-0.27-1.45-1.51-2.51-2.95-2.51c0,0,0,0,0,0c-0.79,0-1.56,0.33-2.12,0.93 c-0.51,0.55-1.03,1.09-1.55,1.64c-1.17,1.25-3.07,1.25-4.24,0c-0.52-0.55-1.03-1.1-1.55-1.64c-0.56-0.6-1.32-0.93-2.12-0.93 c-1.44,0-2.67,1.06-2.95,2.51c-1.48,7.87-2.96,13.35-4.41,20.63c8.64,2.07,17.64,2.07,26.28,0C43.69,24.49,42.21,19.01,40.73,11.14 z"></path> <g> <path class="st10" d="M36.11,49.75c-2.27-2.27-5.96-2.27-8.23,0l-1.66-1.66c3.18-3.18,8.36-3.18,11.54,0L36.11,49.75z"></path> </g> <circle class="st9" cx="23.51" cy="48.92" r="6.45"></circle> <circle class="st9" cx="40.49" cy="48.92" r="6.45"></circle> </g> </g></svg>